<svg class="typst-doc" viewBox="0 0 28.3465 28.3465" width="28.3465" height="28.3465" xmlns="http://www.w3.org/2000/svg" xmlns:xlink="http://www.w3.org/1999/xlink" xmlns:h5="http://www.w3.org/1999/xhtml">
    <g>
        <g transform="translate(2.83465 5.121274999999999)">
            <g class="typst-group">
                <g>
                    <g transform="translate(-0 -0)">
                        <path class="typst-shape" fill="#3377ff" d="M 0 1.417325 C 0 0.634558 0.634558 0 1.417325 0 L 21.259874 0 C 22.042643 0 22.6772 0.634558 22.6772 1.417325 L 22.6772 1.417325 C 22.6772 2.200092 22.042643 2.83465 21.259874 2.83465 L 1.417325 2.83465 C 0.634558 2.83465 0 2.200092 0 1.417325 Z "/>
                    </g>
                    <g transform="translate(0 7.63465)">
                        <g class="typst-group">
                            <g>
                                <g transform="translate(-0 -0)">
                                    <path class="typst-shape" fill="#3377ff" d="M 0 1.417325 C 0 0.634558 0.634558 0 1.417325 0 L 21.259874 0 C 22.042643 0 22.6772 0.634558 22.6772 1.417325 L 22.6772 1.417325 C 22.6772 2.200092 22.042643 2.83465 21.259874 2.83465 L 1.417325 2.83465 C 0.634558 2.83465 0 2.200092 0 1.417325 Z "/>
                                </g>
                                <g transform="translate(0 -2.83465)">
                                    <g class="typst-group">
                                        <g>
                                            <g transform="translate(-0 -0)">
                                                <path class="typst-shape" fill="#295fcc" d="M 0 1.417325 C 0 0.634558 0.634558 0 1.417325 0 L 1.417325 0 C 2.200092 0 2.83465 0.634558 2.83465 1.417325 L 2.83465 7.086625 C 2.83465 7.869392 2.200092 8.50395 1.417325 8.50395 L 1.417325 8.50395 C 0.634558 8.50395 0 7.869392 0 7.086625 Z "/>
                                            </g>
                                        </g>
                                    </g>
                                </g>
                                <g transform="translate(5.6693 -2.83465)">
                                    <g class="typst-group">
                                        <g>
                                            <g transform="translate(-0 -0)">
                                                <path class="typst-shape" fill="#295fcc" d="M 0 1.417325 C 0 0.634558 0.634558 0 1.417325 0 L 9.921275 0 C 10.704042 0 11.3386 0.634558 11.3386 1.417325 L 11.3386 7.086625 C 11.3386 7.869392 10.704042 8.50395 9.921275 8.50395 L 1.417325 8.50395 C 0.634558 8.50395 0 7.869392 0 7.086625 Z "/>
                                            </g>
                                        </g>
                                    </g>
                                </g>
                                <g transform="translate(19.84255 -2.83465)">
                                    <g class="typst-group">
                                        <g>
                                            <g transform="translate(-0 -0)">
                                                <path class="typst-shape" fill="#295fcc" d="M 0 1.417325 C 0 0.634558 0.634558 0 1.417325 0 L 1.417325 0 C 2.200092 0 2.83465 0.634558 2.83465 1.417325 L 2.83465 7.086625 C 2.83465 7.869392 2.200092 8.50395 1.417325 8.50395 L 1.417325 8.50395 C 0.634558 8.50395 0 7.869392 0 7.086625 Z "/>
                                            </g>
                                        </g>
                                    </g>
                                </g>
                            </g>
                        </g>
                    </g>
                    <g transform="translate(0 15.269300000000001)">
                        <path class="typst-shape" fill="#3377ff" d="M 0 1.417325 C 0 0.634558 0.634558 0 1.417325 0 L 21.259874 0 C 22.042643 0 22.6772 0.634558 22.6772 1.417325 L 22.6772 1.417325 C 22.6772 2.200092 22.042643 2.83465 21.259874 2.83465 L 1.417325 2.83465 C 0.634558 2.83465 0 2.200092 0 1.417325 Z "/>
                    </g>
                </g>
            </g>
        </g>
    </g>
</svg>
